# xmcd
#
# Track frame offsets:
#	150
#	16171
#	26053
#	41444
#	59366
#	68767
#	80784
#	89288
#	102922
#	116481
#	126255
#	141558
#	152539
#	167792
#	179548
#	188750
#	199401
#	206902
#	220378
#	234735
#	247170
#	258576
#	272777
#	285802
#	303342
#	316519
#	328721
#
# Disc length: 4616 seconds
#
# Revision: 4
# Processed by: cddbd v1.5.2PL0 Copyright (c) Steve Scherf et al.
# Submitted via: EasyCDDAExtractor 16.1.0.1
#
DISCID=9312061b
DTITLE=Michal Tucny - No. 55 - disc 1
DYEAR=2002
DGENRE=Country
TTITLE0=Bajecna zenska
TTITLE1=Cesty toulavy
TTITLE2=Jak chcete zit bez koni
TTITLE3=Vsichni jsou uz v Mexiku
TTITLE4=Blues folsomske veznice
TTITLE5=Rad se brouzdam rosou
TTITLE6=Delame co muzem
TTITLE7=Blizko Little Big Hornu
TTITLE8=Medicinman
TTITLE9=Ja budu zit naveky
TTITLE10=El Paso
TTITLE11=Waterloo
TTITLE12=Stary dobry western
TTITLE13=Posledni kovboj
TTITLE14=Tenhle druh pisni
TTITLE15=Sundej z hodin zavazi
TTITLE16=Slapej dal
TTITLE17=Kosmickej vandr
TTITLE18=Tri kamaradi
TTITLE19=Jeste dlouhou cestu mam
TTITLE20=Az prijde ten den
TTITLE21=Koukam, jak cela zeme vstava
TTITLE22=Viva Las Vegas
TTITLE23=Staryho psa novym kouskum nenaucis
TTITLE24=Vanek s vuni burcaku
TTITLE25=Jizansky rok
TTITLE26=Len chciet - Vzdyt vis
EXTD=
EXTT0=
EXTT1=
EXTT2=
EXTT3=
EXTT4=
EXTT5=
EXTT6=
EXTT7=
EXTT8=
EXTT9=
EXTT10=
EXTT11=
EXTT12=
EXTT13=
EXTT14=
EXTT15=
EXTT16=
EXTT17=
EXTT18=
EXTT19=
EXTT20=
EXTT21=
EXTT22=
EXTT23=
EXTT24=
EXTT25=
EXTT26=
PLAYORDER=
